<svg xmlns="http://www.w3.org/2000/svg" width="282.433" height="51.999" viewBox="0 0 282.433 51.999">
  <g id="logo" transform="translate(0 0.001)">
    <g id="Group_231" data-name="Group 231" transform="translate(0 -0.001)">
      <path id="Path_297" data-name="Path 297" d="M35.525,17.982v7.961a10.736,10.736,0,0,1-1.609,5.589A20.831,20.831,0,0,1,29.6,36.614a30.386,30.386,0,0,1-4.234,3.133c-.085,0-.085-.085-.169-.085a31.488,31.488,0,0,1-3.811-2.795A20.141,20.141,0,0,1,16.894,31.7,10.644,10.644,0,0,1,15.2,25.943V17.982h0l.508-.169a30.143,30.143,0,0,1,19.309,0Z" transform="translate(-2.327 -2.483)" fill="#0063aa"/>
      <path id="Path_298" data-name="Path 298" d="M44.605,3.593l-.847-.254c-.339-.085-.678-.254-1.1-.339V22.648a17.4,17.4,0,0,1-2.625,9.146,33.173,33.173,0,0,1-7.114,8.215,50.4,50.4,0,0,1-6.436,4.743L20.3,48.9c.762.508,1.609,1.1,2.456,1.609l3.218,1.948,3.218-1.948a58.673,58.673,0,0,0,7.876-5.759,38.823,38.823,0,0,0,8.384-9.824,24.387,24.387,0,0,0,3.557-12.364V4.778Z" transform="translate(-3.108 -0.458)" fill="#494949"/>
      <path id="Path_299" data-name="Path 299" d="M16.429,39.972a36.663,36.663,0,0,1-7.368-8.384,18.461,18.461,0,0,1-2.795-9.4V9.146L7.2,8.807a49.64,49.64,0,0,1,26.084-1.44V.931A56.313,56.313,0,0,0,5.251,2.879L4.4,3.133,0,4.4V22.188A23.776,23.776,0,0,0,3.642,34.806a41.866,41.866,0,0,0,8.384,9.739l5.42-3.642Z" transform="translate(0 0.001)" fill="#494949"/>
      <path id="Path_300" data-name="Path 300" d="M35.51,17.982,25.263,27.975,15.1,17.982h0l.508-.169a30.143,30.143,0,0,1,19.309,0Z" transform="translate(-2.312 -2.483)" fill="#0094ef"/>
      <path id="Path_301" data-name="Path 301" d="M25.263,28.293V40.065c-.085,0-.085-.085-.169-.085a31.488,31.488,0,0,1-3.811-2.795,20.141,20.141,0,0,1-4.488-5.166A10.644,10.644,0,0,1,15.1,26.261V18.3Z" transform="translate(-2.312 -2.801)" fill="#3ebaff"/>
    </g>
    <g id="Group_236" data-name="Group 236" transform="translate(60.128 14.397)">
      <g id="Group_233" data-name="Group 233" transform="translate(0 0)">
        <g id="Group_232" data-name="Group 232">
          <path id="Path_302" data-name="Path 302" d="M73.456,33.429C71.762,31.82,71,29.618,71,26.654a9.617,9.617,0,0,1,2.541-7.114Q76.081,17,80.908,17a18.586,18.586,0,0,1,5.589.762v3.9a15.985,15.985,0,0,0-5.251-.762,5.879,5.879,0,0,0-4.319,1.355c-.932.932-1.355,2.371-1.355,4.4a5.48,5.48,0,0,0,1.27,3.98,5.176,5.176,0,0,0,3.811,1.27,11.526,11.526,0,0,0,3.049-.423V28.009h-3.98V25.13h7.791v9.062a10.674,10.674,0,0,1-2.795,1.186,14.991,14.991,0,0,1-4.065.423C77.521,35.8,75.15,35.038,73.456,33.429Z" transform="translate(-71 -17)" fill="#007dd6"/>
          <path id="Path_303" data-name="Path 303" d="M94.7,17.3h7.876c2.879,0,5,.762,6.436,2.2s2.117,3.811,2.117,7.029c0,3.049-.678,5.335-2.117,6.86-1.44,1.44-3.557,2.2-6.436,2.2H94.7Zm7.283,14.82a6.564,6.564,0,0,0,2.541-.423,3,3,0,0,0,1.44-1.609,8.9,8.9,0,0,0,.508-3.388,9.391,9.391,0,0,0-.508-3.472,3.093,3.093,0,0,0-1.44-1.778,5.794,5.794,0,0,0-2.625-.508h-2.71V32.205h2.795Z" transform="translate(-74.629 -17.046)" fill="#007dd6"/>
          <path id="Path_304" data-name="Path 304" d="M118.185,17.3h8.977a5.951,5.951,0,0,1,4.743,1.778,6.717,6.717,0,0,1,1.609,4.743,6.8,6.8,0,0,1-.762,3.3,5.929,5.929,0,0,1-2.287,2.287,6.6,6.6,0,0,1-3.472.847h-4.319v5.335H118.1V17.3Zm7.876,9.4a2.693,2.693,0,0,0,2.117-.762,2.818,2.818,0,0,0,.762-2.117,3.416,3.416,0,0,0-.678-2.2,2.619,2.619,0,0,0-2.033-.762h-3.472V26.7Z" transform="translate(-78.212 -17.046)" fill="#007dd6"/>
          <path id="Path_305" data-name="Path 305" d="M139.8,17.3h9.146a6.347,6.347,0,0,1,4.743,1.694,6.522,6.522,0,0,1,1.609,4.573,5.755,5.755,0,0,1-.932,3.218,5.073,5.073,0,0,1-2.541,2.033,2.283,2.283,0,0,1,.593.677,11.083,11.083,0,0,1,.593,1.1l2.117,4.912h-4.743l-2.032-4.658a1.769,1.769,0,0,0-.678-.847,2.119,2.119,0,0,0-1.1-.254h-2.117v5.759h-4.573V17.3Zm7.961,8.977a3.169,3.169,0,0,0,2.117-.677,2.5,2.5,0,0,0,.762-2.033c0-1.863-.847-2.71-2.625-2.71h-3.557v5.42Z" transform="translate(-81.535 -17.046)" fill="#007dd6"/>
        </g>
      </g>
      <g id="Group_235" data-name="Group 235" transform="translate(76.896)">
        <g id="Group_234" data-name="Group 234">
          <path id="Path_306" data-name="Path 306" d="M164.341,33.429a9.01,9.01,0,0,1-2.541-6.86,9.934,9.934,0,0,1,2.456-7.114c1.609-1.609,4.065-2.456,7.283-2.456a14.558,14.558,0,0,1,2.879.254c.847.169,1.778.423,2.625.677v3.98a13.379,13.379,0,0,0-5.166-1.016,5.448,5.448,0,0,0-4.15,1.355,6.269,6.269,0,0,0-1.355,4.319,5.241,5.241,0,0,0,1.355,4.065,5.948,5.948,0,0,0,4.15,1.355,13.075,13.075,0,0,0,5.166-1.016v4.065a16.323,16.323,0,0,1-5.5.847C168.406,35.8,166.034,35.038,164.341,33.429Z" transform="translate(-161.8 -17)" fill="#494949"/>
          <path id="Path_307" data-name="Path 307" d="M184.087,33.514c-1.524-1.524-2.287-3.9-2.287-7.029,0-3.3.762-5.759,2.287-7.2Q186.373,17,190.946,17t6.86,2.287c1.524,1.524,2.287,3.9,2.287,7.2,0,3.133-.762,5.5-2.287,7.029S194,35.8,191.031,35.8,185.611,35.038,184.087,33.514Zm10.163-2.879a6.756,6.756,0,0,0,1.1-4.15,7.032,7.032,0,0,0-1.016-4.319,4.168,4.168,0,0,0-3.388-1.27,4.056,4.056,0,0,0-3.388,1.27,7.032,7.032,0,0,0-1.016,4.319,6.391,6.391,0,0,0,1.1,4.15,4.2,4.2,0,0,0,3.387,1.355A4.076,4.076,0,0,0,194.249,30.635Z" transform="translate(-164.862 -17)" fill="#494949"/>
          <path id="Path_308" data-name="Path 308" d="M207.385,17.3h3.9l7.791,10.925V17.3h4.573V35.593h-3.98l-7.791-10.925V35.593H207.3V17.3Z" transform="translate(-168.767 -17.046)" fill="#494949"/>
          <path id="Path_309" data-name="Path 309" d="M235.335,20.857H230V17.3h15.244v3.557h-5.335V35.593h-4.573Z" transform="translate(-172.243 -17.046)" fill="#494949"/>
          <path id="Path_310" data-name="Path 310" d="M251.5,17.3h9.146a6.347,6.347,0,0,1,4.742,1.694A6.522,6.522,0,0,1,267,23.567a5.755,5.755,0,0,1-.932,3.218,5.073,5.073,0,0,1-2.541,2.033,2.283,2.283,0,0,1,.593.677,11.083,11.083,0,0,1,.593,1.1l2.117,4.912h-4.743l-2.033-4.658a1.769,1.769,0,0,0-.677-.847,2.119,2.119,0,0,0-1.1-.254h-2.117v5.759h-4.573V17.3Zm7.876,8.977a3.169,3.169,0,0,0,2.117-.677,2.5,2.5,0,0,0,.762-2.033c0-1.863-.847-2.71-2.625-2.71h-3.557v5.42Z" transform="translate(-175.535 -17.046)" fill="#494949"/>
          <path id="Path_311" data-name="Path 311" d="M278.544,17.3h4.912L290.4,35.593h-4.743l-1.609-4.15h-6.1l-1.609,4.15H271.6Zm4.912,10.755L281,21.7l-2.371,6.352Z" transform="translate(-178.613 -17.046)" fill="#494949"/>
          <path id="Path_312" data-name="Path 312" d="M297.941,33.429a9.011,9.011,0,0,1-2.541-6.86,9.934,9.934,0,0,1,2.456-7.114c1.609-1.609,4.065-2.456,7.283-2.456a14.558,14.558,0,0,1,2.879.254c.847.169,1.778.423,2.625.677v3.98a13.379,13.379,0,0,0-5.166-1.016,5.449,5.449,0,0,0-4.15,1.355,6.269,6.269,0,0,0-1.355,4.319,5.241,5.241,0,0,0,1.355,4.065,5.948,5.948,0,0,0,4.15,1.355,13.075,13.075,0,0,0,5.166-1.016v4.065a16.323,16.323,0,0,1-5.5.847C302.09,35.8,299.634,35.038,297.941,33.429Z" transform="translate(-182.257 -17)" fill="#494949"/>
          <path id="Path_313" data-name="Path 313" d="M320.835,20.857H315.5V17.3h15.244v3.557h-5.335V35.593h-4.573V20.857Z" transform="translate(-185.335 -17.046)" fill="#494949"/>
        </g>
      </g>
    </g>
  </g>
</svg>
